<?xml version="1.0" encoding="utf-8"?>
<!-- Generator: Adobe Illustrator 24.3.0, SVG Export Plug-In . SVG Version: 6.00 Build 0)  -->
<svg version="1.1" id="Layer_1" xmlns:xodm="http://www.corel.com/coreldraw/odm/2003"
	 xmlns="http://www.w3.org/2000/svg" xmlns:xlink="http://www.w3.org/1999/xlink" x="0px" y="0px" viewBox="0 0 595.3 841.9"
	 style="enable-background:new 0 0 595.3 841.9;" xml:space="preserve">
<style type="text/css">
	.st0{fill-rule:evenodd;clip-rule:evenodd;fill:#FFFFFF;}
</style>
<g id="Layer_x0020_1">
	<path class="st0" d="M472.4,365.8c-8.3-4.1-129-64.7-134.8-65.9c-7.5,17.3-22.8,34.6-38.5,43.4c-9,5.1-10.7,2.7-18.7-2.5
		c-53-34.9-53.9-107.1-5.7-144.9c15.8-12.4,18.4-12.4,34.3,0.4c9.2,7.3,20,18.3,25.4,30.5c7.5-0.9,85.2-38.8,102.4-46.8
		c6.2-2.9,30.1-13.2,33.6-16.3c-6.8-10.8-29.1-31.9-40.3-39.5C392.5,99,349.7,86.6,302.8,93.9c-22.4,3.5-35.8-6-75.1,0.2
		c-81.1,12.7-148.9,82.8-147.9,174.8c1.1,103.9,91.3,179.8,190.3,171.6c6.3-0.5,12-1.8,17.7-2.6c14.9-1.9,74.5,20,144.9-31
		C442.9,399.5,467.8,377.2,472.4,365.8L472.4,365.8z M261.7,428.8c-5.4-5.8-46.2-15.5-81-69.2c-18.6-28.7-34.7-77.9-23.3-120
		c21.7-80.5,125.8-97.4,173.9-38.6c2.5,3.1,5.4,7.7,8.3,10.6c3.9-0.7,52.7-23.3,56-25.8c-5.2-17.4-36.2-45.3-53.5-56.6
		c-76.1-50.1-182.3-22.3-226.5,52.7C47,298,135.3,434.6,261.7,428.8L261.7,428.8z M453.7,369.6l-28.2-13.7c-9.6-4.8-19-9.8-29-14.2
		c-8.2,4-13.8,12.7-33.7,19.5c-14.8,5-30.3,7.4-47.9,5.1c-30.8-4.1-54.1-21.7-67.3-39.6c-15.7-21-24.6-51-17.2-83.8
		c6.6-29,22.8-45.8,44.7-62.1c-6.9-5-29.8-3.1-38.9-1.2c-31.8,6.8-59.3,30.6-67.9,65c-9.9,39.8,6,87,29.9,119.5
		c15.2,20.6,36,37.9,61.9,50.1c45.4,21.2,100.7,19.6,144.7-4C420.8,401.6,447.6,381.8,453.7,369.6L453.7,369.6z M406.2,180.1
		c5.2-0.6,40.4-17.3,44.6-20.3c-3.5-6.2-17.1-17.8-23.6-22.7c-27.4-20.7-72.1-37.6-107.2-32.7c12,3.4,39.5,21.4,49.4,30.5
		C378.6,143.1,401.1,166,406.2,180.1L406.2,180.1z M307.8,352.5c24.2,7.7,64.7-2.8,75.6-16.7c-2.7-2.3-36.7-19.2-41-20.2
		c-4.4,10-16.2,22.7-24.7,29.4C314.7,347.4,310.3,349.9,307.8,352.5L307.8,352.5z"/>
</g>
</svg>
